<svg xmlns="http://www.w3.org/2000/svg" x="0px" y="0px" viewBox="0 0 864 864" enable-background="new 0 0 864 864"><style>.ls0{fill:#ff8000}.fs0{fill:#0f0}.fs1{fill:green}</style><g transform="matrix(.77055 0 0 .77055 190.1232876712 162.5232876712)" class="ls0"><g><path d="M453.2,259.4V329c0,6.1-3.9,10-10,10h-8.4c-6.1,0-10-3.9-10-10v-56.9h-55.2v341.1h19.5c7.2,0,11.7,4.5,11.7,11.7v1.1 c0,7.2-4.5,11.7-11.7,11.7H296c-7.2,0-11.7-4.5-11.7-11.7V625c0-7.2,4.5-11.7,11.7-11.7h17.3V272.2h-55.2V329c0,6.1-3.9,10-10,10 h-8.4c-6.1,0-10-3.9-10-10v-69.7c0-7.2,4.5-11.7,11.7-11.7h200.1C448.7,247.6,453.2,252.1,453.2,259.4z"/></g><g><path d="M681.9,340.5c0,59.1-22.8,89.5-73.4,89.5H531c-5.1,0-8.1-2-8.1-5.4v-0.3c0-3.4,3-5.7,8.1-5.7h14.7V259.8H531 c-5.1,0-8.1-2.4-8.1-5.7v-0.3c0-3.4,3-5.4,8.1-5.4h77.5C661.6,248.3,681.9,278.3,681.9,340.5z M645.4,340.5 c0-65.8-5.6-80.7-49.1-80.7h-11.1v158.7h11.1C640.3,418.4,645.4,402.9,645.4,340.5z"/></g><g><path d="M687.7,631.2v0.3c0,3.4-3,5.4-8.1,5.4h-57.2c-5.1,0-8.1-2-8.1-5.4v-0.3c0-3.4,3-5.7,8.1-5.7h9.1L591,544.1l-15.7,17.2v64.1 h11.1c5.1,0,8.1,2.4,8.1,5.7v0.3c0,3.4-3,5.4-8.1,5.4h-61.3c-5.1,0-8.1-2-8.1-5.4v-0.3c0-3.4,3-5.7,8.1-5.7h10.6V466.8h-10.6 c-5.1,0-8.1-2.4-8.1-5.7v-0.3c0-3.4,3-5.4,8.1-5.4h61.3c5.1,0,8.1,2,8.1,5.4v0.3c0,3.4-3,5.7-8.1,5.7h-11.1v72.2l66.8-72.2H633 c-5.1,0-8.1-2.4-8.1-5.7v-0.3c0-3.4,3-5.4,8.1-5.4h45.6c5.1,0,8.1,2,8.1,5.4v0.3c0,3.4-3,5.7-8.1,5.7h-16.7l-49.6,54l54.2,104.6 h13.2C684.7,625.5,687.7,627.9,687.7,631.2z"/></g></g><g><g><g><path class="fs0" d="M604.2,228.4c1.7,7.4,2.6,15,2.6,22.6c101.3,34.9,174.3,131.2,174.3,244.3c0,142.5-115.8,258.4-258.1,258.4 c-125.8,0-230.8-90.7-253.5-210.1c-4.8,2.7-9.6,5.3-14.6,7.6c-1.6,0.7-3.2,1.5-4.9,2.2c26.7,126.2,138.7,221,272.9,221 C677,774.4,802,649.5,802,495.3C802.1,369.4,718.7,263.1,604.2,228.4z"/></g><path class="fs1" d="M276.5,330.5c-0.8,1.9-2.1,3.7-2.3,5.7c-0.4,3.5-0.1,7.2-0.1,11.4c1-2,1.7-3.4,2.4-4.9 c0.3,0.1,0.6,0.2,0.9,0.3c-1.2,4.7-2.5,9.4-3.8,14.5c1.9-0.5,3.3-0.8,4.5-1.1c-0.4,4-0.8,8-1.2,12.4c1.4-0.1,2.4-0.1,3.6-0.2 c-3.8,8.2-7.5,16.2-11.2,24.3c0.5,0.2,1,0.5,1.5,0.7c0.9-1.5,1.8-3.1,2.7-4.6c0.4,0.2,0.8,0.3,1.2,0.5c-2.7,7-4.6,14.5-8.4,20.8 c-4.6,7.7-8.4,16.4-18,20.4c-2.5,1-3.7,6.5-4.3,10.2c-0.6,3.6,0.5,7.4,0.8,11.1c1.2,11.9,2.5,23.8,3.6,35.8 c0.2,1.9-0.5,4.3-1.6,5.9c-7.9,12.6-6.3,25.5-0.6,38.1c1.4,3.1,5,5.3,7.5,7.9c18-10.5,19.5-28.1,17.5-46.5 c-2.1-19.8-0.1-39,7.5-57.3c2.3-5.6,8.3-10.2,13.6-14c6.4-4.7,13.8-8,20.6-12c2.6-1.6,5.4-3.2,7.5-5.3c5.8-5.9,11.2-12.1,16.8-18.2 c3.7-4,7.4-8.1,11.2-12.1c0.3-0.4,0.8-0.7,1-1.1c3.6-9,11.1-16.1,12.7-26c2-12.2,8.8-21.8,16.1-31.2c2.9-3.8,4.3-8.8,7.4-12.4 c2.6-3,1.8-5.6,0.9-8.5c5.1,0.8,9.7,1.5,14.5,2.3c-0.8-1-1.9-2.2-3.1-3.7c2.7,0.2,5.2,0.4,7.8,0.7c-0.7-1.3-1.5-2.6-2.6-4.6 c4.6-0.1,9.7,5,11.5-2.9c0.7,1.1,1.1,1.7,1.3,2.1c2-2.9,4-5.9,6.6-9.6c0.5,1.9,0.8,2.9,0.9,3.3c3.3-4.1,6.6-8.7,10.4-12.8 c2.2-2.3,5.2-3.9,7.8-5.7c0,0.1,0.4,0.6,0.6,0.9c7.7-5.4,15.3-10.7,22.9-16c0.1,0.7,0.3,1.7,0.6,3.4c1.5-3.8,2.8-7,4.1-10.2 c0.3,0.1,0.5,0.2,0.8,0.3c0.2,1.5,0.4,3.1,0.7,5.3c1-1.5,2.3-2.5,2.3-3.5c0.1-3.9,0.7-8,5.1-7.9c2.6,0,5.1,3.2,7.4,5.3 c1.3,0.6,3.1,0.8,3.9,1.7c3.8,4.8,7.2,9.8,10.9,14.6c0.7,0.9,2.8,1.1,3.1,2c0.8,2.9,1.2,5.3-2.2,7.8c-4.4,3.3-7.7,8.1-11.6,12.2 c-1.1,1.1-2.7,1.8-3.8,2.9c-1.2,1.1-2.4,2.4-3.2,3.8c-1.2,2.1-2.1,4.3-3.4,7.1c3.1,2.9,0.9,6.1-3,10.5c4,0.3,7,1.2,9.5,0.5 c8.1-2.1,14.4-6.8,19.1-14c4.6-7,9.7-13.8,15.1-20.1c6-7.1,7.2-14.2,2.5-22.3c-3.4-5.9-6.5-12-9.6-18c-1.3-2.6,1.8-8.9,4.6-9.2 c3.3-0.3,6.7,0.2,10.1,0.3c4.1,0.2,8.2,0.3,12.4,0.4c6.3,0.1,12.5,0.2,18.8,0.3c1.1,0,2.2-0.1,3.1-0.6c5-2.4,6.4-1.8,8.2,3.3 c1.7,4.7,3.8,9.2,5.6,13.9c0.4,1,0.2,2.5-0.3,3.5c-3.4,6.7-3.1,15.3,2.9,18.1c4.2,1.9,5.4,6.9,10.6,6.6c9.6-11.5,8.1-24.2,1.5-37.4 c-2.8-5.6-4.5-11.8-6-17.8c-1.8-7.2-5.6-11.9-13.1-13.3c-9-1.8-18-3.6-27-5.5c-3.3-0.7-6.5-1.9-9.7-2.8c0-0.4-0.1-0.9-0.1-1.3 c3.7-1.1,7.4-2.3,11.1-3.4c1.4-0.4,3.2-0.1,4.1-0.9c6.1-5,13.7-3.4,20.6-4.6c2.9-0.5,6.4,2.1,9.6,3.4c-0.3,0.5-0.6,1-1.1,1.7 c1.7,0,3.2,0,4.5,0c0.2,1.1,0.2,2.6,0.6,2.8c1.9,0.7,3.9,1.6,5.8,1.3c9.9-1.2,18.1,2.4,25.6,8.5c1.2,1,2.7,1.8,3.9,2.9 c8.5,6.9,16.5,2.2,24.4-1.1c4.1-1.7,1.8-4.5,0.3-6.7c-4.1-6.4-8.4-12.6-12.4-19.1c-3.6-5.8-4.7-11.4,1-17 c4.6-4.5,2.5-10.3,1.7-15.7c-0.3-1.7-0.2-3.6-0.9-5.2c-3.5-7.5,2.5-10.3,6.8-14s8.9-7,13.1-10.8c1.2-1.1,1.3-3.2,2-4.9 c-1.7-0.6-3.5-1.7-5.2-1.7c-3.8,0-7.5,0.6-12,1c2.7-4.1,4.9-7.2,6.9-10.6c0.7-1.1,1.3-3,0.8-3.8c-0.6-0.9-2.5-1.2-3.8-1.4 c-0.7-0.1-1.6,0.3-2.4,0.5c-8.8,2.2-17.7,3.9-26.4,6.7c-6.3,2-11.8,0.8-17.4-1.6c-12.1-5.2-24.4-3.6-36.9-1.7 c-3.8,0.6-8.1,0.7-11.7-0.4c-8.8-2.8-16.6,0.9-24.8,2.3c-10.9,1.9-21.3,6.2-32.9,5.5c-9.7-0.6-19.2,3-28.4,7.8 c1.1,0.4,1.7,0.6,2.8,0.9c-9,8.1-16.2,17.7-28.3,22.2c-10.9,4-19.2,12.1-27.5,20.4c-13.4,13.4-28.3,25.3-42,38.6 c-13.4,13-26,26.8-38.9,40.2c-2.4,2.4-5.1,4.6-7.3,7.1c-5.6,6.5-11.6,12.8-16.2,20c-3.1,4.8-7,7.1-11.8,8.4 c-5.4,1.6-11.5,1.6-16.5,4c-10.6,4.9-21.9,5.7-33,7.9c-5.5,1.1-10.7,3.5-16,5.4c-11.8,4.2-23.4,8.6-35.2,12.6 c-12.4,4.2-25.3,7.3-37.3,12.6c-7.7,3.4-15.8,5.6-23.2,9.4c-7.8,4-15.2,8.6-22.9,13c0.7,0.3,1.3,0.6,2,1c-7.5,3.4-12.3,9-16.8,15.8 c-4.3,6.5-13.5,8.8-17.2,17.4c1.7-1.4,2.8-2.4,4-3.4c0.3,0.3,0.6,0.6,0.9,0.8c-3.6,4-7.2,8-10.7,12.1c-0.8,0.9-0.8,2.5-0.2,3.9 c-0.2,3-0.4,6-0.8,9c-0.1,0.8-1.2,1.4-1.6,2.2c-0.5,1.2-0.7,2.6-1.4,5c2.6-1.3,4-2,5.4-2.7c0.3,0.3,0.5,0.6,0.8,0.9 c-2.4,2.3-4.7,4.6-7.1,6.9c0.2,0.1,0.8,0.4,1.1,0.5c-1.5,4.5-3,8.9-4.6,13.6c3.6-3.3,6.9-6.3,10.2-9.2c0.3,0.3,0.5,0.7,0.8,1 c-1.9,3.5-3.8,7-6.1,11.1c2.4-1.4,4.2-2.4,6.9-3.9c-0.9,1.7-1.6,2.5-1.8,3.4c-1.5,7.2-3,14.4-4.4,21.6c0.4,0.1,0.9,0.2,1.3,0.3 c0.5-0.7,1.1-1.5,2.3-3.1c-1.1,6.2-5.6,10.9-1.5,16.6c5.4-2.9,13.3-1.4,16.6-9.3c0.3,0.3,0.6,0.7,0.9,1c-0.6,1.1-1.2,2.3-1.8,3.4 c0.1,0.1,0.2,0.3,0.2,0.3c4.1-2.5,9.2-4.2,12-7.7c4.2-5.1,6.9-11.5,10.7-17c-0.1,0.8-0.3,1.7-0.4,2.6c0.5-0.1,0.8-0.1,1-0.2 c5.1-5.1,9.9-10.4,15.3-15.3c2.3-2.1,5.8-2.7,8.2-4.8c2-1.7,3-4.6,4.6-7.2c0.2,0.5,0.5,1,0.8,1.8c0.7-1.3,1.3-2.5,2.5-5 c-0.5,3.7-0.8,6-1.1,8.3c0.2,0,0.4,0.1,0.5,0.1c1.5-3.2,2.9-6.3,5-10.9c0.4,2.4,0.5,3.2,0.6,3.9c2.8-2.6,5.5-5.3,8.2-7.9 c0.2,0.1,0.3,0.3,0.5,0.4c-1,1.9-2.1,3.7-3.1,5.6c0.2,0.1,0.4,0.3,0.6,0.4c1.6-1.7,3.2-3.4,5.4-5.9c-0.4,1.7-0.5,2.6-0.8,4 c1.1-0.6,1.9-1,3-1.7c-0.1,1.1-0.2,2.1-0.2,2.5c5.5-6,11.3-12.1,17-18.3c0.3,0.2,0.6,0.4,1,0.7c-0.5,1.3-1.1,2.6-1.6,3.9 c0.2,0.1,0.4,0.2,0.5,0.3c1.5-1.8,2.9-3.6,4.4-5.5c0.3,0.2,0.7,0.4,1,0.6c-1.6,2.9-3.2,5.7-4.8,8.6c0.3,0.2,0.5,0.3,0.8,0.5 c2.3-3,4.7-6,7-9c0.2,0.4,0.3,0.7,0.5,1.1c1.6-0.7,3.5-1.1,4.9-2.1c2.9-2.1,5.5-4.4,8.9-6.1c-0.8,1.4-1.6,2.7-2.3,4.1 c0.1,0.1,0.3,0.3,0.4,0.4c1.8-1.6,3.7-3.3,6.5-5.8c-0.9,2.5-1.4,3.8-1.9,5.3c3.9-0.4,5.4-6.8,10.8-3.5c5-2.9,10.5-6.2,16.4-9.6 c-0.3,1.1-0.5,1.8-0.9,3c2.8-1.5,5.2-2.8,8.3-4.5c-0.5,1.6-0.7,2.3-1.1,3.6c3.3-1.7,6.2-3.2,9.1-4.8c0.2,0.3,0.5,0.6,0.7,0.9 c-1.4,0.8-2.8,1.5-4.2,2.3c0.4,0.5,0.8,1.1,1.2,1.6c5.9-3.4,11.8-6.8,17.6-10.1c0,0.1,0.2,0.8,0.7,2.3c1.3-2.3,2.4-4.1,3.3-5.9 s1.5-3.8,2.3-6c0.5,1,0.8,1.6,1.1,2.3c2.3-3.9,4.5-7.7,6.9-11.3C274,331.5,275.4,331.1,276.5,330.5c-1.5-6,2.9-9.7,5.8-14.1 C280.3,321.1,278.4,325.8,276.5,330.5z"/></g></g></svg>